# Tiled2Unity generated file. Do not modify by hand.
# Wavefront file for 'TutorialStage_mesh_0006.obj'

# Vertices (Count = 148)
v -224 -32 -0.05
v -256 -32 -0.05
v -256 0 -0.05
v -224 0 -0.05
v -800 -32 -0.05
v -832 -32 -0.05
v -832 0 -0.05
v -800 0 -0.05
v -224 -64 -0.1
v -256 -64 -0.1
v -256 -32 -0.1
v -224 -32 -0.1
v -800 -64 -0.1
v -832 -64 -0.1
v -832 -32 -0.1
v -800 -32 -0.1
v -224 -96 -0.15
v -256 -96 -0.15
v -256 -64 -0.15
v -224 -64 -0.15
v -800 -96 -0.15
v -832 -96 -0.15
v -832 -64 -0.15
v -800 -64 -0.15
v -224 -128 -0.2
v -256 -128 -0.2
v -256 -96 -0.2
v -224 -96 -0.2
v -224 -160 -0.25
v -256 -160 -0.25
v -256 -128 -0.25
v -224 -128 -0.25
v -224 -192 -0.3
v -256 -192 -0.3
v -256 -160 -0.3
v -224 -160 -0.3
v -224 -224 -0.35
v -256 -224 -0.35
v -256 -192 -0.35
v -224 -192 -0.35
v -896 -224 -0.35
v -928 -224 -0.35
v -928 -192 -0.35
v -896 -192 -0.35
v -224 -256 -0.4
v -256 -256 -0.4
v -256 -224 -0.4
v -224 -224 -0.4
v -448 -256 -0.4
v -480 -256 -0.4
v -480 -224 -0.4
v -448 -224 -0.4
v -896 -256 -0.4
v -928 -256 -0.4
v -928 -224 -0.4
v -896 -224 -0.4
v -224 -288 -0.45
v -256 -288 -0.45
v -256 -256 -0.45
v -224 -256 -0.45
v -448 -288 -0.45
v -480 -288 -0.45
v -480 -256 -0.45
v -448 -256 -0.45
v -576 -288 -0.45
v -608 -288 -0.45
v -608 -256 -0.45
v -576 -256 -0.45
v -224 -320 -0.5
v -256 -320 -0.5
v -256 -288 -0.5
v -224 -288 -0.5
v -576 -320 -0.5
v -608 -320 -0.5
v -608 -288 -0.5
v -576 -288 -0.5
v -640 -320 -0.5
v -672 -320 -0.5
v -672 -288 -0.5
v -640 -288 -0.5
v -224 -352 -0.55
v -256 -352 -0.55
v -256 -320 -0.55
v -224 -320 -0.55
v -224 -384 -0.6
v -256 -384 -0.6
v -256 -352 -0.6
v -224 -352 -0.6
v -448 -384 -0.6
v -480 -384 -0.6
v -480 -352 -0.6
v -448 -352 -0.6
v -672 -384 -0.6
v -704 -384 -0.6
v -704 -352 -0.6
v -672 -352 -0.6
v -224 -416 -0.65
v -256 -416 -0.65
v -256 -384 -0.65
v -224 -384 -0.65
v -448 -416 -0.65
v -480 -416 -0.65
v -480 -384 -0.65
v -448 -384 -0.65
v -672 -416 -0.65
v -704 -416 -0.65
v -704 -384 -0.65
v -672 -384 -0.65
v 0 -480 -0.75
v -32 -480 -0.75
v -32 -448 -0.75
v 0 -448 -0.75
v -448 -480 -0.75
v -480 -480 -0.75
v -480 -448 -0.75
v -448 -448 -0.75
v 0 -512 -0.8
v -32 -512 -0.8
v -32 -480 -0.8
v 0 -480 -0.8
v -448 -512 -0.8
v -480 -512 -0.8
v -480 -480 -0.8
v -448 -480 -0.8
v -736 -512 -0.8
v -768 -512 -0.8
v -768 -480 -0.8
v -736 -480 -0.8
v -800 -512 -0.8
v -832 -512 -0.8
v -832 -480 -0.8
v -800 -480 -0.8
v 0 -544 -0.85
v -32 -544 -0.85
v -32 -512 -0.85
v 0 -512 -0.85
v -736 -544 -0.85
v -768 -544 -0.85
v -768 -512 -0.85
v -736 -512 -0.85
v 0 -576 -0.9
v -32 -576 -0.9
v -32 -544 -0.9
v 0 -544 -0.9
v 0 -608 -0.95
v -32 -608 -0.95
v -32 -576 -0.95
v 0 -576 -0.95

# Texture cooridinates (Count = 4)
vt 0 0.6666666
vt 0.3333333 0.6666666
vt 0.3333333 1
vt 0 1

# Normal
vn 0 0 -1

# Mesh description
g TutorialStage_mesh_0006

# Faces
f 1/1/1 2/2/1 3/3/1 4/4/1
f 5/1/1 6/2/1 7/3/1 8/4/1
f 9/1/1 10/2/1 11/3/1 12/4/1
f 13/1/1 14/2/1 15/3/1 16/4/1
f 17/1/1 18/2/1 19/3/1 20/4/1
f 21/1/1 22/2/1 23/3/1 24/4/1
f 25/1/1 26/2/1 27/3/1 28/4/1
f 29/1/1 30/2/1 31/3/1 32/4/1
f 33/1/1 34/2/1 35/3/1 36/4/1
f 37/1/1 38/2/1 39/3/1 40/4/1
f 41/1/1 42/2/1 43/3/1 44/4/1
f 45/1/1 46/2/1 47/3/1 48/4/1
f 49/1/1 50/2/1 51/3/1 52/4/1
f 53/1/1 54/2/1 55/3/1 56/4/1
f 57/1/1 58/2/1 59/3/1 60/4/1
f 61/1/1 62/2/1 63/3/1 64/4/1
f 65/1/1 66/2/1 67/3/1 68/4/1
f 69/1/1 70/2/1 71/3/1 72/4/1
f 73/1/1 74/2/1 75/3/1 76/4/1
f 77/1/1 78/2/1 79/3/1 80/4/1
f 81/1/1 82/2/1 83/3/1 84/4/1
f 85/1/1 86/2/1 87/3/1 88/4/1
f 89/1/1 90/2/1 91/3/1 92/4/1
f 93/1/1 94/2/1 95/3/1 96/4/1
f 97/1/1 98/2/1 99/3/1 100/4/1
f 101/1/1 102/2/1 103/3/1 104/4/1
f 105/1/1 106/2/1 107/3/1 108/4/1
f 109/1/1 110/2/1 111/3/1 112/4/1
f 113/1/1 114/2/1 115/3/1 116/4/1
f 117/1/1 118/2/1 119/3/1 120/4/1
f 121/1/1 122/2/1 123/3/1 124/4/1
f 125/1/1 126/2/1 127/3/1 128/4/1
f 129/1/1 130/2/1 131/3/1 132/4/1
f 133/1/1 134/2/1 135/3/1 136/4/1
f 137/1/1 138/2/1 139/3/1 140/4/1
f 141/1/1 142/2/1 143/3/1 144/4/1
f 145/1/1 146/2/1 147/3/1 148/4/1

