# Tiled2Unity generated file. Do not modify by hand.
# Wavefront file for 'TutorialStage_mesh_0005.obj'

# Vertices (Count = 456)
v -192 -32 -0.05
v -224 -32 -0.05
v -224 0 -0.05
v -192 0 -0.05
v -224 -32 -0.05
v -256 -32 -0.05
v -256 0 -0.05
v -224 0 -0.05
v -256 -32 -0.05
v -288 -32 -0.05
v -288 0 -0.05
v -256 0 -0.05
v -768 -32 -0.05
v -800 -32 -0.05
v -800 0 -0.05
v -768 0 -0.05
v -800 -32 -0.05
v -832 -32 -0.05
v -832 0 -0.05
v -800 0 -0.05
v -832 -32 -0.05
v -864 -32 -0.05
v -864 0 -0.05
v -832 0 -0.05
v -192 -64 -0.1
v -224 -64 -0.1
v -224 -32 -0.1
v -192 -32 -0.1
v -224 -64 -0.1
v -256 -64 -0.1
v -256 -32 -0.1
v -224 -32 -0.1
v -256 -64 -0.1
v -288 -64 -0.1
v -288 -32 -0.1
v -256 -32 -0.1
v -768 -64 -0.1
v -800 -64 -0.1
v -800 -32 -0.1
v -768 -32 -0.1
v -800 -64 -0.1
v -832 -64 -0.1
v -832 -32 -0.1
v -800 -32 -0.1
v -832 -64 -0.1
v -864 -64 -0.1
v -864 -32 -0.1
v -832 -32 -0.1
v -192 -96 -0.15
v -224 -96 -0.15
v -224 -64 -0.15
v -192 -64 -0.15
v -224 -96 -0.15
v -256 -96 -0.15
v -256 -64 -0.15
v -224 -64 -0.15
v -256 -96 -0.15
v -288 -96 -0.15
v -288 -64 -0.15
v -256 -64 -0.15
v -192 -128 -0.2
v -224 -128 -0.2
v -224 -96 -0.2
v -192 -96 -0.2
v -224 -128 -0.2
v -256 -128 -0.2
v -256 -96 -0.2
v -224 -96 -0.2
v -256 -128 -0.2
v -288 -128 -0.2
v -288 -96 -0.2
v -256 -96 -0.2
v -192 -160 -0.25
v -224 -160 -0.25
v -224 -128 -0.25
v -192 -128 -0.25
v -224 -160 -0.25
v -256 -160 -0.25
v -256 -128 -0.25
v -224 -128 -0.25
v -256 -160 -0.25
v -288 -160 -0.25
v -288 -128 -0.25
v -256 -128 -0.25
v -864 -160 -0.25
v -896 -160 -0.25
v -896 -128 -0.25
v -864 -128 -0.25
v -896 -160 -0.25
v -928 -160 -0.25
v -928 -128 -0.25
v -896 -128 -0.25
v -928 -160 -0.25
v -960 -160 -0.25
v -960 -128 -0.25
v -928 -128 -0.25
v -192 -192 -0.3
v -224 -192 -0.3
v -224 -160 -0.3
v -192 -160 -0.3
v -224 -192 -0.3
v -256 -192 -0.3
v -256 -160 -0.3
v -224 -160 -0.3
v -256 -192 -0.3
v -288 -192 -0.3
v -288 -160 -0.3
v -256 -160 -0.3
v -416 -192 -0.3
v -448 -192 -0.3
v -448 -160 -0.3
v -416 -160 -0.3
v -448 -192 -0.3
v -480 -192 -0.3
v -480 -160 -0.3
v -448 -160 -0.3
v -480 -192 -0.3
v -512 -192 -0.3
v -512 -160 -0.3
v -480 -160 -0.3
v -544 -192 -0.3
v -576 -192 -0.3
v -576 -160 -0.3
v -544 -160 -0.3
v -576 -192 -0.3
v -608 -192 -0.3
v -608 -160 -0.3
v -576 -160 -0.3
v -608 -192 -0.3
v -640 -192 -0.3
v -640 -160 -0.3
v -608 -160 -0.3
v -864 -192 -0.3
v -896 -192 -0.3
v -896 -160 -0.3
v -864 -160 -0.3
v -896 -192 -0.3
v -928 -192 -0.3
v -928 -160 -0.3
v -896 -160 -0.3
v -928 -192 -0.3
v -960 -192 -0.3
v -960 -160 -0.3
v -928 -160 -0.3
v -192 -224 -0.35
v -224 -224 -0.35
v -224 -192 -0.35
v -192 -192 -0.35
v -224 -224 -0.35
v -256 -224 -0.35
v -256 -192 -0.35
v -224 -192 -0.35
v -256 -224 -0.35
v -288 -224 -0.35
v -288 -192 -0.35
v -256 -192 -0.35
v -416 -224 -0.35
v -448 -224 -0.35
v -448 -192 -0.35
v -416 -192 -0.35
v -448 -224 -0.35
v -480 -224 -0.35
v -480 -192 -0.35
v -448 -192 -0.35
v -480 -224 -0.35
v -512 -224 -0.35
v -512 -192 -0.35
v -480 -192 -0.35
v -544 -224 -0.35
v -576 -224 -0.35
v -576 -192 -0.35
v -544 -192 -0.35
v -576 -224 -0.35
v -608 -224 -0.35
v -608 -192 -0.35
v -576 -192 -0.35
v -608 -224 -0.35
v -640 -224 -0.35
v -640 -192 -0.35
v -608 -192 -0.35
v -864 -224 -0.35
v -896 -224 -0.35
v -896 -192 -0.35
v -864 -192 -0.35
v -896 -224 -0.35
v -928 -224 -0.35
v -928 -192 -0.35
v -896 -192 -0.35
v -928 -224 -0.35
v -960 -224 -0.35
v -960 -192 -0.35
v -928 -192 -0.35
v -192 -256 -0.4
v -224 -256 -0.4
v -224 -224 -0.4
v -192 -224 -0.4
v -224 -256 -0.4
v -256 -256 -0.4
v -256 -224 -0.4
v -224 -224 -0.4
v -256 -256 -0.4
v -288 -256 -0.4
v -288 -224 -0.4
v -256 -224 -0.4
v -416 -256 -0.4
v -448 -256 -0.4
v -448 -224 -0.4
v -416 -224 -0.4
v -448 -256 -0.4
v -480 -256 -0.4
v -480 -224 -0.4
v -448 -224 -0.4
v -480 -256 -0.4
v -512 -256 -0.4
v -512 -224 -0.4
v -480 -224 -0.4
v -544 -256 -0.4
v -576 -256 -0.4
v -576 -224 -0.4
v -544 -224 -0.4
v -576 -256 -0.4
v -608 -256 -0.4
v -608 -224 -0.4
v -576 -224 -0.4
v -608 -256 -0.4
v -640 -256 -0.4
v -640 -224 -0.4
v -608 -224 -0.4
v -864 -256 -0.4
v -896 -256 -0.4
v -896 -224 -0.4
v -864 -224 -0.4
v -896 -256 -0.4
v -928 -256 -0.4
v -928 -224 -0.4
v -896 -224 -0.4
v -928 -256 -0.4
v -960 -256 -0.4
v -960 -224 -0.4
v -928 -224 -0.4
v -192 -288 -0.45
v -224 -288 -0.45
v -224 -256 -0.45
v -192 -256 -0.45
v -224 -288 -0.45
v -256 -288 -0.45
v -256 -256 -0.45
v -224 -256 -0.45
v -256 -288 -0.45
v -288 -288 -0.45
v -288 -256 -0.45
v -256 -256 -0.45
v -544 -288 -0.45
v -576 -288 -0.45
v -576 -256 -0.45
v -544 -256 -0.45
v -576 -288 -0.45
v -608 -288 -0.45
v -608 -256 -0.45
v -576 -256 -0.45
v -608 -288 -0.45
v -640 -288 -0.45
v -640 -256 -0.45
v -608 -256 -0.45
v -192 -320 -0.5
v -224 -320 -0.5
v -224 -288 -0.5
v -192 -288 -0.5
v -224 -320 -0.5
v -256 -320 -0.5
v -256 -288 -0.5
v -224 -288 -0.5
v -256 -320 -0.5
v -288 -320 -0.5
v -288 -288 -0.5
v -256 -288 -0.5
v -416 -320 -0.5
v -448 -320 -0.5
v -448 -288 -0.5
v -416 -288 -0.5
v -448 -320 -0.5
v -480 -320 -0.5
v -480 -288 -0.5
v -448 -288 -0.5
v -480 -320 -0.5
v -512 -320 -0.5
v -512 -288 -0.5
v -480 -288 -0.5
v -640 -320 -0.5
v -672 -320 -0.5
v -672 -288 -0.5
v -640 -288 -0.5
v -672 -320 -0.5
v -704 -320 -0.5
v -704 -288 -0.5
v -672 -288 -0.5
v -704 -320 -0.5
v -736 -320 -0.5
v -736 -288 -0.5
v -704 -288 -0.5
v -192 -352 -0.55
v -224 -352 -0.55
v -224 -320 -0.55
v -192 -320 -0.55
v -224 -352 -0.55
v -256 -352 -0.55
v -256 -320 -0.55
v -224 -320 -0.55
v -256 -352 -0.55
v -288 -352 -0.55
v -288 -320 -0.55
v -256 -320 -0.55
v -416 -352 -0.55
v -448 -352 -0.55
v -448 -320 -0.55
v -416 -320 -0.55
v -448 -352 -0.55
v -480 -352 -0.55
v -480 -320 -0.55
v -448 -320 -0.55
v -480 -352 -0.55
v -512 -352 -0.55
v -512 -320 -0.55
v -480 -320 -0.55
v -640 -352 -0.55
v -672 -352 -0.55
v -672 -320 -0.55
v -640 -320 -0.55
v -672 -352 -0.55
v -704 -352 -0.55
v -704 -320 -0.55
v -672 -320 -0.55
v -704 -352 -0.55
v -736 -352 -0.55
v -736 -320 -0.55
v -704 -320 -0.55
v -192 -384 -0.6
v -224 -384 -0.6
v -224 -352 -0.6
v -192 -352 -0.6
v -224 -384 -0.6
v -256 -384 -0.6
v -256 -352 -0.6
v -224 -352 -0.6
v -256 -384 -0.6
v -288 -384 -0.6
v -288 -352 -0.6
v -256 -352 -0.6
v -416 -384 -0.6
v -448 -384 -0.6
v -448 -352 -0.6
v -416 -352 -0.6
v -448 -384 -0.6
v -480 -384 -0.6
v -480 -352 -0.6
v -448 -352 -0.6
v -480 -384 -0.6
v -512 -384 -0.6
v -512 -352 -0.6
v -480 -352 -0.6
v -640 -384 -0.6
v -672 -384 -0.6
v -672 -352 -0.6
v -640 -352 -0.6
v -672 -384 -0.6
v -704 -384 -0.6
v -704 -352 -0.6
v -672 -352 -0.6
v -704 -384 -0.6
v -736 -384 -0.6
v -736 -352 -0.6
v -704 -352 -0.6
v -416 -416 -0.65
v -448 -416 -0.65
v -448 -384 -0.65
v -416 -384 -0.65
v -448 -416 -0.65
v -480 -416 -0.65
v -480 -384 -0.65
v -448 -384 -0.65
v -480 -416 -0.65
v -512 -416 -0.65
v -512 -384 -0.65
v -480 -384 -0.65
v -416 -448 -0.7
v -448 -448 -0.7
v -448 -416 -0.7
v -416 -416 -0.7
v -448 -448 -0.7
v -480 -448 -0.7
v -480 -416 -0.7
v -448 -416 -0.7
v -480 -448 -0.7
v -512 -448 -0.7
v -512 -416 -0.7
v -480 -416 -0.7
v -704 -448 -0.7
v -736 -448 -0.7
v -736 -416 -0.7
v -704 -416 -0.7
v -736 -448 -0.7
v -768 -448 -0.7
v -768 -416 -0.7
v -736 -416 -0.7
v -768 -448 -0.7
v -800 -448 -0.7
v -800 -416 -0.7
v -768 -416 -0.7
v -416 -480 -0.75
v -448 -480 -0.75
v -448 -448 -0.75
v -416 -448 -0.75
v -448 -480 -0.75
v -480 -480 -0.75
v -480 -448 -0.75
v -448 -448 -0.75
v -480 -480 -0.75
v -512 -480 -0.75
v -512 -448 -0.75
v -480 -448 -0.75
v -704 -480 -0.75
v -736 -480 -0.75
v -736 -448 -0.75
v -704 -448 -0.75
v -736 -480 -0.75
v -768 -480 -0.75
v -768 -448 -0.75
v -736 -448 -0.75
v -768 -480 -0.75
v -800 -480 -0.75
v -800 -448 -0.75
v -768 -448 -0.75
v -416 -512 -0.8
v -448 -512 -0.8
v -448 -480 -0.8
v -416 -480 -0.8
v -448 -512 -0.8
v -480 -512 -0.8
v -480 -480 -0.8
v -448 -480 -0.8
v -480 -512 -0.8
v -512 -512 -0.8
v -512 -480 -0.8
v -480 -480 -0.8
v -704 -512 -0.8
v -736 -512 -0.8
v -736 -480 -0.8
v -704 -480 -0.8
v -736 -512 -0.8
v -768 -512 -0.8
v -768 -480 -0.8
v -736 -480 -0.8
v -768 -512 -0.8
v -800 -512 -0.8
v -800 -480 -0.8
v -768 -480 -0.8

# Texture cooridinates (Count = 32)
vt 0.5 0.8571429
vt 0.6666667 0.8571429
vt 0.6666667 1
vt 0.5 1
vt 0.8333333 0.8571429
vt 0.8333333 1
vt 1 0.8571429
vt 1 1
vt 0.5 0.1428571
vt 0.6666667 0.1428571
vt 0.6666667 0.2857143
vt 0.5 0.2857143
vt 0.8333333 0.1428571
vt 0.8333333 0.2857143
vt 1 0.1428571
vt 1 0.2857143
vt 0.5 0.7142857
vt 0.6666667 0.7142857
vt 0.8333333 0.7142857
vt 1 0.7142857
vt 0.5 0
vt 0.6666667 0
vt 0.8333333 0
vt 1 0
vt 0.5 0.5714285
vt 0.6666667 0.5714285
vt 0.8333333 0.5714285
vt 1 0.5714285
vt 0.5 0.4285714
vt 0.6666667 0.4285714
vt 0.8333333 0.4285714
vt 1 0.4285714

# Normal
vn 0 0 -1

# Mesh description
g TutorialStage_mesh_0005

# Faces
f 1/1/1 2/2/1 3/3/1 4/4/1
f 5/2/1 6/5/1 7/6/1 8/3/1
f 9/5/1 10/7/1 11/8/1 12/6/1
f 13/9/1 14/10/1 15/11/1 16/12/1
f 17/10/1 18/13/1 19/14/1 20/11/1
f 21/13/1 22/15/1 23/16/1 24/14/1
f 25/17/1 26/18/1 27/2/1 28/1/1
f 29/18/1 30/19/1 31/5/1 32/2/1
f 33/19/1 34/20/1 35/7/1 36/5/1
f 37/21/1 38/22/1 39/10/1 40/9/1
f 41/22/1 42/23/1 43/13/1 44/10/1
f 45/23/1 46/24/1 47/15/1 48/13/1
f 49/25/1 50/26/1 51/18/1 52/17/1
f 53/26/1 54/27/1 55/19/1 56/18/1
f 57/27/1 58/28/1 59/20/1 60/19/1
f 61/1/1 62/2/1 63/3/1 64/4/1
f 65/2/1 66/5/1 67/6/1 68/3/1
f 69/5/1 70/7/1 71/8/1 72/6/1
f 73/17/1 74/18/1 75/2/1 76/1/1
f 77/18/1 78/19/1 79/5/1 80/2/1
f 81/19/1 82/20/1 83/7/1 84/5/1
f 85/29/1 86/30/1 87/26/1 88/25/1
f 89/30/1 90/31/1 91/27/1 92/26/1
f 93/31/1 94/32/1 95/28/1 96/27/1
f 97/25/1 98/26/1 99/18/1 100/17/1
f 101/26/1 102/27/1 103/19/1 104/18/1
f 105/27/1 106/28/1 107/20/1 108/19/1
f 109/1/1 110/2/1 111/3/1 112/4/1
f 113/2/1 114/5/1 115/6/1 116/3/1
f 117/5/1 118/7/1 119/8/1 120/6/1
f 121/29/1 122/30/1 123/26/1 124/25/1
f 125/30/1 126/31/1 127/27/1 128/26/1
f 129/31/1 130/32/1 131/28/1 132/27/1
f 133/12/1 134/11/1 135/30/1 136/29/1
f 137/11/1 138/14/1 139/31/1 140/30/1
f 141/14/1 142/16/1 143/32/1 144/31/1
f 145/1/1 146/2/1 147/3/1 148/4/1
f 149/2/1 150/5/1 151/6/1 152/3/1
f 153/5/1 154/7/1 155/8/1 156/6/1
f 157/17/1 158/18/1 159/2/1 160/1/1
f 161/18/1 162/19/1 163/5/1 164/2/1
f 165/19/1 166/20/1 167/7/1 168/5/1
f 169/12/1 170/11/1 171/30/1 172/29/1
f 173/11/1 174/14/1 175/31/1 176/30/1
f 177/14/1 178/16/1 179/32/1 180/31/1
f 181/9/1 182/10/1 183/11/1 184/12/1
f 185/10/1 186/13/1 187/14/1 188/11/1
f 189/13/1 190/15/1 191/16/1 192/14/1
f 193/17/1 194/18/1 195/2/1 196/1/1
f 197/18/1 198/19/1 199/5/1 200/2/1
f 201/19/1 202/20/1 203/7/1 204/5/1
f 205/25/1 206/26/1 207/18/1 208/17/1
f 209/26/1 210/27/1 211/19/1 212/18/1
f 213/27/1 214/28/1 215/20/1 216/19/1
f 217/9/1 218/10/1 219/11/1 220/12/1
f 221/10/1 222/13/1 223/14/1 224/11/1
f 225/13/1 226/15/1 227/16/1 228/14/1
f 229/21/1 230/22/1 231/10/1 232/9/1
f 233/22/1 234/23/1 235/13/1 236/10/1
f 237/23/1 238/24/1 239/15/1 240/13/1
f 241/25/1 242/26/1 243/18/1 244/17/1
f 245/26/1 246/27/1 247/19/1 248/18/1
f 249/27/1 250/28/1 251/20/1 252/19/1
f 253/21/1 254/22/1 255/10/1 256/9/1
f 257/22/1 258/23/1 259/13/1 260/10/1
f 261/23/1 262/24/1 263/15/1 264/13/1
f 265/1/1 266/2/1 267/3/1 268/4/1
f 269/2/1 270/5/1 271/6/1 272/3/1
f 273/5/1 274/7/1 275/8/1 276/6/1
f 277/29/1 278/30/1 279/26/1 280/25/1
f 281/30/1 282/31/1 283/27/1 284/26/1
f 285/31/1 286/32/1 287/28/1 288/27/1
f 289/1/1 290/2/1 291/3/1 292/4/1
f 293/2/1 294/5/1 295/6/1 296/3/1
f 297/5/1 298/7/1 299/8/1 300/6/1
f 301/17/1 302/18/1 303/2/1 304/1/1
f 305/18/1 306/19/1 307/5/1 308/2/1
f 309/19/1 310/20/1 311/7/1 312/5/1
f 313/12/1 314/11/1 315/30/1 316/29/1
f 317/11/1 318/14/1 319/31/1 320/30/1
f 321/14/1 322/16/1 323/32/1 324/31/1
f 325/17/1 326/18/1 327/2/1 328/1/1
f 329/18/1 330/19/1 331/5/1 332/2/1
f 333/19/1 334/20/1 335/7/1 336/5/1
f 337/25/1 338/26/1 339/18/1 340/17/1
f 341/26/1 342/27/1 343/19/1 344/18/1
f 345/27/1 346/28/1 347/20/1 348/19/1
f 349/9/1 350/10/1 351/11/1 352/12/1
f 353/10/1 354/13/1 355/14/1 356/11/1
f 357/13/1 358/15/1 359/16/1 360/14/1
f 361/25/1 362/26/1 363/18/1 364/17/1
f 365/26/1 366/27/1 367/19/1 368/18/1
f 369/27/1 370/28/1 371/20/1 372/19/1
f 373/29/1 374/30/1 375/26/1 376/25/1
f 377/30/1 378/31/1 379/27/1 380/26/1
f 381/31/1 382/32/1 383/28/1 384/27/1
f 385/12/1 386/11/1 387/30/1 388/29/1
f 389/11/1 390/14/1 391/31/1 392/30/1
f 393/14/1 394/16/1 395/32/1 396/31/1
f 397/1/1 398/2/1 399/3/1 400/4/1
f 401/2/1 402/5/1 403/6/1 404/3/1
f 405/5/1 406/7/1 407/8/1 408/6/1
f 409/9/1 410/10/1 411/11/1 412/12/1
f 413/10/1 414/13/1 415/14/1 416/11/1
f 417/13/1 418/15/1 419/16/1 420/14/1
f 421/17/1 422/18/1 423/2/1 424/1/1
f 425/18/1 426/19/1 427/5/1 428/2/1
f 429/19/1 430/20/1 431/7/1 432/5/1
f 433/21/1 434/22/1 435/10/1 436/9/1
f 437/22/1 438/23/1 439/13/1 440/10/1
f 441/23/1 442/24/1 443/15/1 444/13/1
f 445/25/1 446/26/1 447/18/1 448/17/1
f 449/26/1 450/27/1 451/19/1 452/18/1
f 453/27/1 454/28/1 455/20/1 456/19/1

