# Tiled2Unity generated file. Do not modify by hand.
# Wavefront file for 'TutorialStage_mesh_0003.obj'

# Vertices (Count = 456)
v -192 -32 -0.05
v -224 -32 -0.05
v -224 0 -0.05
v -192 0 -0.05
v -224 -32 -0.05
v -256 -32 -0.05
v -256 0 -0.05
v -224 0 -0.05
v -256 -32 -0.05
v -288 -32 -0.05
v -288 0 -0.05
v -256 0 -0.05
v -192 -64 -0.1
v -224 -64 -0.1
v -224 -32 -0.1
v -192 -32 -0.1
v -224 -64 -0.1
v -256 -64 -0.1
v -256 -32 -0.1
v -224 -32 -0.1
v -256 -64 -0.1
v -288 -64 -0.1
v -288 -32 -0.1
v -256 -32 -0.1
v -768 -64 -0.1
v -800 -64 -0.1
v -800 -32 -0.1
v -768 -32 -0.1
v -800 -64 -0.1
v -832 -64 -0.1
v -832 -32 -0.1
v -800 -32 -0.1
v -832 -64 -0.1
v -864 -64 -0.1
v -864 -32 -0.1
v -832 -32 -0.1
v -192 -96 -0.15
v -224 -96 -0.15
v -224 -64 -0.15
v -192 -64 -0.15
v -224 -96 -0.15
v -256 -96 -0.15
v -256 -64 -0.15
v -224 -64 -0.15
v -256 -96 -0.15
v -288 -96 -0.15
v -288 -64 -0.15
v -256 -64 -0.15
v -768 -96 -0.15
v -800 -96 -0.15
v -800 -64 -0.15
v -768 -64 -0.15
v -800 -96 -0.15
v -832 -96 -0.15
v -832 -64 -0.15
v -800 -64 -0.15
v -832 -96 -0.15
v -864 -96 -0.15
v -864 -64 -0.15
v -832 -64 -0.15
v -192 -128 -0.2
v -224 -128 -0.2
v -224 -96 -0.2
v -192 -96 -0.2
v -224 -128 -0.2
v -256 -128 -0.2
v -256 -96 -0.2
v -224 -96 -0.2
v -256 -128 -0.2
v -288 -128 -0.2
v -288 -96 -0.2
v -256 -96 -0.2
v -768 -128 -0.2
v -800 -128 -0.2
v -800 -96 -0.2
v -768 -96 -0.2
v -800 -128 -0.2
v -832 -128 -0.2
v -832 -96 -0.2
v -800 -96 -0.2
v -832 -128 -0.2
v -864 -128 -0.2
v -864 -96 -0.2
v -832 -96 -0.2
v -192 -160 -0.25
v -224 -160 -0.25
v -224 -128 -0.25
v -192 -128 -0.25
v -224 -160 -0.25
v -256 -160 -0.25
v -256 -128 -0.25
v -224 -128 -0.25
v -256 -160 -0.25
v -288 -160 -0.25
v -288 -128 -0.25
v -256 -128 -0.25
v -192 -192 -0.3
v -224 -192 -0.3
v -224 -160 -0.3
v -192 -160 -0.3
v -224 -192 -0.3
v -256 -192 -0.3
v -256 -160 -0.3
v -224 -160 -0.3
v -256 -192 -0.3
v -288 -192 -0.3
v -288 -160 -0.3
v -256 -160 -0.3
v -192 -224 -0.35
v -224 -224 -0.35
v -224 -192 -0.35
v -192 -192 -0.35
v -224 -224 -0.35
v -256 -224 -0.35
v -256 -192 -0.35
v -224 -192 -0.35
v -256 -224 -0.35
v -288 -224 -0.35
v -288 -192 -0.35
v -256 -192 -0.35
v -864 -224 -0.35
v -896 -224 -0.35
v -896 -192 -0.35
v -864 -192 -0.35
v -896 -224 -0.35
v -928 -224 -0.35
v -928 -192 -0.35
v -896 -192 -0.35
v -928 -224 -0.35
v -960 -224 -0.35
v -960 -192 -0.35
v -928 -192 -0.35
v -192 -256 -0.4
v -224 -256 -0.4
v -224 -224 -0.4
v -192 -224 -0.4
v -224 -256 -0.4
v -256 -256 -0.4
v -256 -224 -0.4
v -224 -224 -0.4
v -256 -256 -0.4
v -288 -256 -0.4
v -288 -224 -0.4
v -256 -224 -0.4
v -416 -256 -0.4
v -448 -256 -0.4
v -448 -224 -0.4
v -416 -224 -0.4
v -448 -256 -0.4
v -480 -256 -0.4
v -480 -224 -0.4
v -448 -224 -0.4
v -480 -256 -0.4
v -512 -256 -0.4
v -512 -224 -0.4
v -480 -224 -0.4
v -864 -256 -0.4
v -896 -256 -0.4
v -896 -224 -0.4
v -864 -224 -0.4
v -896 -256 -0.4
v -928 -256 -0.4
v -928 -224 -0.4
v -896 -224 -0.4
v -928 -256 -0.4
v -960 -256 -0.4
v -960 -224 -0.4
v -928 -224 -0.4
v -192 -288 -0.45
v -224 -288 -0.45
v -224 -256 -0.45
v -192 -256 -0.45
v -224 -288 -0.45
v -256 -288 -0.45
v -256 -256 -0.45
v -224 -256 -0.45
v -256 -288 -0.45
v -288 -288 -0.45
v -288 -256 -0.45
v -256 -256 -0.45
v -416 -288 -0.45
v -448 -288 -0.45
v -448 -256 -0.45
v -416 -256 -0.45
v -448 -288 -0.45
v -480 -288 -0.45
v -480 -256 -0.45
v -448 -256 -0.45
v -480 -288 -0.45
v -512 -288 -0.45
v -512 -256 -0.45
v -480 -256 -0.45
v -544 -288 -0.45
v -576 -288 -0.45
v -576 -256 -0.45
v -544 -256 -0.45
v -576 -288 -0.45
v -608 -288 -0.45
v -608 -256 -0.45
v -576 -256 -0.45
v -608 -288 -0.45
v -640 -288 -0.45
v -640 -256 -0.45
v -608 -256 -0.45
v -864 -288 -0.45
v -896 -288 -0.45
v -896 -256 -0.45
v -864 -256 -0.45
v -896 -288 -0.45
v -928 -288 -0.45
v -928 -256 -0.45
v -896 -256 -0.45
v -928 -288 -0.45
v -960 -288 -0.45
v -960 -256 -0.45
v -928 -256 -0.45
v -192 -320 -0.5
v -224 -320 -0.5
v -224 -288 -0.5
v -192 -288 -0.5
v -224 -320 -0.5
v -256 -320 -0.5
v -256 -288 -0.5
v -224 -288 -0.5
v -256 -320 -0.5
v -288 -320 -0.5
v -288 -288 -0.5
v -256 -288 -0.5
v -416 -320 -0.5
v -448 -320 -0.5
v -448 -288 -0.5
v -416 -288 -0.5
v -448 -320 -0.5
v -480 -320 -0.5
v -480 -288 -0.5
v -448 -288 -0.5
v -480 -320 -0.5
v -512 -320 -0.5
v -512 -288 -0.5
v -480 -288 -0.5
v -544 -320 -0.5
v -576 -320 -0.5
v -576 -288 -0.5
v -544 -288 -0.5
v -576 -320 -0.5
v -608 -320 -0.5
v -608 -288 -0.5
v -576 -288 -0.5
v -608 -320 -0.5
v -640 -320 -0.5
v -640 -288 -0.5
v -608 -288 -0.5
v -192 -352 -0.55
v -224 -352 -0.55
v -224 -320 -0.55
v -192 -320 -0.55
v -224 -352 -0.55
v -256 -352 -0.55
v -256 -320 -0.55
v -224 -320 -0.55
v -256 -352 -0.55
v -288 -352 -0.55
v -288 -320 -0.55
v -256 -320 -0.55
v -544 -352 -0.55
v -576 -352 -0.55
v -576 -320 -0.55
v -544 -320 -0.55
v -576 -352 -0.55
v -608 -352 -0.55
v -608 -320 -0.55
v -576 -320 -0.55
v -608 -352 -0.55
v -640 -352 -0.55
v -640 -320 -0.55
v -608 -320 -0.55
v -192 -384 -0.6
v -224 -384 -0.6
v -224 -352 -0.6
v -192 -352 -0.6
v -224 -384 -0.6
v -256 -384 -0.6
v -256 -352 -0.6
v -224 -352 -0.6
v -256 -384 -0.6
v -288 -384 -0.6
v -288 -352 -0.6
v -256 -352 -0.6
v -416 -384 -0.6
v -448 -384 -0.6
v -448 -352 -0.6
v -416 -352 -0.6
v -448 -384 -0.6
v -480 -384 -0.6
v -480 -352 -0.6
v -448 -352 -0.6
v -480 -384 -0.6
v -512 -384 -0.6
v -512 -352 -0.6
v -480 -352 -0.6
v -640 -384 -0.6
v -672 -384 -0.6
v -672 -352 -0.6
v -640 -352 -0.6
v -672 -384 -0.6
v -704 -384 -0.6
v -704 -352 -0.6
v -672 -352 -0.6
v -704 -384 -0.6
v -736 -384 -0.6
v -736 -352 -0.6
v -704 -352 -0.6
v -192 -416 -0.65
v -224 -416 -0.65
v -224 -384 -0.65
v -192 -384 -0.65
v -224 -416 -0.65
v -256 -416 -0.65
v -256 -384 -0.65
v -224 -384 -0.65
v -256 -416 -0.65
v -288 -416 -0.65
v -288 -384 -0.65
v -256 -384 -0.65
v -416 -416 -0.65
v -448 -416 -0.65
v -448 -384 -0.65
v -416 -384 -0.65
v -448 -416 -0.65
v -480 -416 -0.65
v -480 -384 -0.65
v -448 -384 -0.65
v -480 -416 -0.65
v -512 -416 -0.65
v -512 -384 -0.65
v -480 -384 -0.65
v -640 -416 -0.65
v -672 -416 -0.65
v -672 -384 -0.65
v -640 -384 -0.65
v -672 -416 -0.65
v -704 -416 -0.65
v -704 -384 -0.65
v -672 -384 -0.65
v -704 -416 -0.65
v -736 -416 -0.65
v -736 -384 -0.65
v -704 -384 -0.65
v -192 -448 -0.7
v -224 -448 -0.7
v -224 -416 -0.7
v -192 -416 -0.7
v -224 -448 -0.7
v -256 -448 -0.7
v -256 -416 -0.7
v -224 -416 -0.7
v -256 -448 -0.7
v -288 -448 -0.7
v -288 -416 -0.7
v -256 -416 -0.7
v -416 -448 -0.7
v -448 -448 -0.7
v -448 -416 -0.7
v -416 -416 -0.7
v -448 -448 -0.7
v -480 -448 -0.7
v -480 -416 -0.7
v -448 -416 -0.7
v -480 -448 -0.7
v -512 -448 -0.7
v -512 -416 -0.7
v -480 -416 -0.7
v -640 -448 -0.7
v -672 -448 -0.7
v -672 -416 -0.7
v -640 -416 -0.7
v -672 -448 -0.7
v -704 -448 -0.7
v -704 -416 -0.7
v -672 -416 -0.7
v -704 -448 -0.7
v -736 -448 -0.7
v -736 -416 -0.7
v -704 -416 -0.7
v -416 -480 -0.75
v -448 -480 -0.75
v -448 -448 -0.75
v -416 -448 -0.75
v -448 -480 -0.75
v -480 -480 -0.75
v -480 -448 -0.75
v -448 -448 -0.75
v -480 -480 -0.75
v -512 -480 -0.75
v -512 -448 -0.75
v -480 -448 -0.75
v -416 -512 -0.8
v -448 -512 -0.8
v -448 -480 -0.8
v -416 -480 -0.8
v -448 -512 -0.8
v -480 -512 -0.8
v -480 -480 -0.8
v -448 -480 -0.8
v -480 -512 -0.8
v -512 -512 -0.8
v -512 -480 -0.8
v -480 -480 -0.8
v -704 -512 -0.8
v -736 -512 -0.8
v -736 -480 -0.8
v -704 -480 -0.8
v -736 -512 -0.8
v -768 -512 -0.8
v -768 -480 -0.8
v -736 -480 -0.8
v -768 -512 -0.8
v -800 -512 -0.8
v -800 -480 -0.8
v -768 -480 -0.8
v -416 -544 -0.85
v -448 -544 -0.85
v -448 -512 -0.85
v -416 -512 -0.85
v -448 -544 -0.85
v -480 -544 -0.85
v -480 -512 -0.85
v -448 -512 -0.85
v -480 -544 -0.85
v -512 -544 -0.85
v -512 -512 -0.85
v -480 -512 -0.85
v -704 -544 -0.85
v -736 -544 -0.85
v -736 -512 -0.85
v -704 -512 -0.85
v -736 -544 -0.85
v -768 -544 -0.85
v -768 -512 -0.85
v -736 -512 -0.85
v -768 -544 -0.85
v -800 -544 -0.85
v -800 -512 -0.85
v -768 -512 -0.85
v -704 -576 -0.9
v -736 -576 -0.9
v -736 -544 -0.9
v -704 -544 -0.9
v -736 -576 -0.9
v -768 -576 -0.9
v -768 -544 -0.9
v -736 -544 -0.9
v -768 -576 -0.9
v -800 -576 -0.9
v -800 -544 -0.9
v -768 -544 -0.9

# Texture cooridinates (Count = 28)
vt 0.5 0.6666666
vt 0.6666667 0.6666666
vt 0.6666667 1
vt 0.5 1
vt 0.8333333 0.6666666
vt 0.8333333 1
vt 1 0.6666666
vt 1 1
vt 0.5 0.3333333
vt 0.6666667 0.3333333
vt 0.8333333 0.3333333
vt 1 0.3333333
vt 0.5 0
vt 0.6666667 0
vt 0.8333333 0
vt 1 0
vt 0 0.3333333
vt 0.1666667 0.3333333
vt 0.1666667 0.6666666
vt 0 0.6666666
vt 0.3333333 0.3333333
vt 0.3333333 0.6666666
vt 0 0
vt 0.1666667 0
vt 0.3333333 0
vt 0.1666667 1
vt 0 1
vt 0.3333333 1

# Normal
vn 0 0 -1

# Mesh description
g TutorialStage_mesh_0003

# Faces
f 1/1/1 2/2/1 3/3/1 4/4/1
f 5/2/1 6/5/1 7/6/1 8/3/1
f 9/5/1 10/7/1 11/8/1 12/6/1
f 13/9/1 14/10/1 15/2/1 16/1/1
f 17/10/1 18/11/1 19/5/1 20/2/1
f 21/11/1 22/12/1 23/7/1 24/5/1
f 25/1/1 26/2/1 27/3/1 28/4/1
f 29/2/1 30/5/1 31/6/1 32/3/1
f 33/5/1 34/7/1 35/8/1 36/6/1
f 37/13/1 38/14/1 39/10/1 40/9/1
f 41/14/1 42/15/1 43/11/1 44/10/1
f 45/15/1 46/16/1 47/12/1 48/11/1
f 49/9/1 50/10/1 51/2/1 52/1/1
f 53/10/1 54/11/1 55/5/1 56/2/1
f 57/11/1 58/12/1 59/7/1 60/5/1
f 61/17/1 62/18/1 63/19/1 64/20/1
f 65/18/1 66/21/1 67/22/1 68/19/1
f 69/21/1 70/9/1 71/1/1 72/22/1
f 73/13/1 74/14/1 75/10/1 76/9/1
f 77/14/1 78/15/1 79/11/1 80/10/1
f 81/15/1 82/16/1 83/12/1 84/11/1
f 85/23/1 86/24/1 87/18/1 88/17/1
f 89/24/1 90/25/1 91/21/1 92/18/1
f 93/25/1 94/13/1 95/9/1 96/21/1
f 97/20/1 98/19/1 99/26/1 100/27/1
f 101/19/1 102/22/1 103/28/1 104/26/1
f 105/22/1 106/1/1 107/4/1 108/28/1
f 109/17/1 110/18/1 111/19/1 112/20/1
f 113/18/1 114/21/1 115/22/1 116/19/1
f 117/21/1 118/9/1 119/1/1 120/22/1
f 121/1/1 122/2/1 123/3/1 124/4/1
f 125/2/1 126/5/1 127/6/1 128/3/1
f 129/5/1 130/7/1 131/8/1 132/6/1
f 133/23/1 134/24/1 135/18/1 136/17/1
f 137/24/1 138/25/1 139/21/1 140/18/1
f 141/25/1 142/13/1 143/9/1 144/21/1
f 145/20/1 146/19/1 147/26/1 148/27/1
f 149/19/1 150/22/1 151/28/1 152/26/1
f 153/22/1 154/1/1 155/4/1 156/28/1
f 157/9/1 158/10/1 159/2/1 160/1/1
f 161/10/1 162/11/1 163/5/1 164/2/1
f 165/11/1 166/12/1 167/7/1 168/5/1
f 169/20/1 170/19/1 171/26/1 172/27/1
f 173/19/1 174/22/1 175/28/1 176/26/1
f 177/22/1 178/1/1 179/4/1 180/28/1
f 181/17/1 182/18/1 183/19/1 184/20/1
f 185/18/1 186/21/1 187/22/1 188/19/1
f 189/21/1 190/9/1 191/1/1 192/22/1
f 193/1/1 194/2/1 195/3/1 196/4/1
f 197/2/1 198/5/1 199/6/1 200/3/1
f 201/5/1 202/7/1 203/8/1 204/6/1
f 205/13/1 206/14/1 207/10/1 208/9/1
f 209/14/1 210/15/1 211/11/1 212/10/1
f 213/15/1 214/16/1 215/12/1 216/11/1
f 217/17/1 218/18/1 219/19/1 220/20/1
f 221/18/1 222/21/1 223/22/1 224/19/1
f 225/21/1 226/9/1 227/1/1 228/22/1
f 229/23/1 230/24/1 231/18/1 232/17/1
f 233/24/1 234/25/1 235/21/1 236/18/1
f 237/25/1 238/13/1 239/9/1 240/21/1
f 241/9/1 242/10/1 243/2/1 244/1/1
f 245/10/1 246/11/1 247/5/1 248/2/1
f 249/11/1 250/12/1 251/7/1 252/5/1
f 253/23/1 254/24/1 255/18/1 256/17/1
f 257/24/1 258/25/1 259/21/1 260/18/1
f 261/25/1 262/13/1 263/9/1 264/21/1
f 265/13/1 266/14/1 267/10/1 268/9/1
f 269/14/1 270/15/1 271/11/1 272/10/1
f 273/15/1 274/16/1 275/12/1 276/11/1
f 277/20/1 278/19/1 279/26/1 280/27/1
f 281/19/1 282/22/1 283/28/1 284/26/1
f 285/22/1 286/1/1 287/4/1 288/28/1
f 289/1/1 290/2/1 291/3/1 292/4/1
f 293/2/1 294/5/1 295/6/1 296/3/1
f 297/5/1 298/7/1 299/8/1 300/6/1
f 301/20/1 302/19/1 303/26/1 304/27/1
f 305/19/1 306/22/1 307/28/1 308/26/1
f 309/22/1 310/1/1 311/4/1 312/28/1
f 313/17/1 314/18/1 315/19/1 316/20/1
f 317/18/1 318/21/1 319/22/1 320/19/1
f 321/21/1 322/9/1 323/1/1 324/22/1
f 325/9/1 326/10/1 327/2/1 328/1/1
f 329/10/1 330/11/1 331/5/1 332/2/1
f 333/11/1 334/12/1 335/7/1 336/5/1
f 337/17/1 338/18/1 339/19/1 340/20/1
f 341/18/1 342/21/1 343/22/1 344/19/1
f 345/21/1 346/9/1 347/1/1 348/22/1
f 349/23/1 350/24/1 351/18/1 352/17/1
f 353/24/1 354/25/1 355/21/1 356/18/1
f 357/25/1 358/13/1 359/9/1 360/21/1
f 361/13/1 362/14/1 363/10/1 364/9/1
f 365/14/1 366/15/1 367/11/1 368/10/1
f 369/15/1 370/16/1 371/12/1 372/11/1
f 373/23/1 374/24/1 375/18/1 376/17/1
f 377/24/1 378/25/1 379/21/1 380/18/1
f 381/25/1 382/13/1 383/9/1 384/21/1
f 385/1/1 386/2/1 387/3/1 388/4/1
f 389/2/1 390/5/1 391/6/1 392/3/1
f 393/5/1 394/7/1 395/8/1 396/6/1
f 397/9/1 398/10/1 399/2/1 400/1/1
f 401/10/1 402/11/1 403/5/1 404/2/1
f 405/11/1 406/12/1 407/7/1 408/5/1
f 409/20/1 410/19/1 411/26/1 412/27/1
f 413/19/1 414/22/1 415/28/1 416/26/1
f 417/22/1 418/1/1 419/4/1 420/28/1
f 421/13/1 422/14/1 423/10/1 424/9/1
f 425/14/1 426/15/1 427/11/1 428/10/1
f 429/15/1 430/16/1 431/12/1 432/11/1
f 433/17/1 434/18/1 435/19/1 436/20/1
f 437/18/1 438/21/1 439/22/1 440/19/1
f 441/21/1 442/9/1 443/1/1 444/22/1
f 445/23/1 446/24/1 447/18/1 448/17/1
f 449/24/1 450/25/1 451/21/1 452/18/1
f 453/25/1 454/13/1 455/9/1 456/21/1

