# Tiled2Unity generated file. Do not modify by hand.
# Wavefront file for 'Lvl1_mesh_0003.obj'

# Vertices (Count = 620)
v -160 -48 0
v -176 -48 0
v -176 -32 0
v -160 -32 0
v -224 -64 0
v -240 -64 0
v -240 -48 0
v -224 -48 0
v -896 -96 0
v -912 -96 0
v -912 -80 0
v -896 -80 0
v -944 -112 0
v -960 -112 0
v -960 -96 0
v -944 -96 0
v -160 -128 0
v -176 -128 0
v -176 -112 0
v -160 -112 0
v -192 -128 0
v -208 -128 0
v -208 -112 0
v -192 -112 0
v -224 -128 0
v -240 -128 0
v -240 -112 0
v -224 -112 0
v -160 -160 0
v -176 -160 0
v -176 -144 0
v -160 -144 0
v -192 -160 0
v -208 -160 0
v -208 -144 0
v -192 -144 0
v -224 -160 0
v -240 -160 0
v -240 -144 0
v -224 -144 0
v -880 -160 0
v -896 -160 0
v -896 -144 0
v -880 -144 0
v -912 -160 0
v -928 -160 0
v -928 -144 0
v -912 -144 0
v -928 -160 0
v -944 -160 0
v -944 -144 0
v -928 -144 0
v -960 -160 0
v -976 -160 0
v -976 -144 0
v -960 -144 0
v -192 -192 0
v -208 -192 0
v -208 -176 0
v -192 -176 0
v -880 -192 0
v -896 -192 0
v -896 -176 0
v -880 -176 0
v -912 -192 0
v -928 -192 0
v -928 -176 0
v -912 -176 0
v -928 -192 0
v -944 -192 0
v -944 -176 0
v -928 -176 0
v -960 -192 0
v -976 -192 0
v -976 -176 0
v -960 -176 0
v -912 -208 0
v -928 -208 0
v -928 -192 0
v -912 -192 0
v -928 -208 0
v -944 -208 0
v -944 -192 0
v -928 -192 0
v -288 -224 0
v -304 -224 0
v -304 -208 0
v -288 -208 0
v -80 -240 0
v -96 -240 0
v -96 -224 0
v -80 -224 0
v -288 -240 0
v -304 -240 0
v -304 -224 0
v -288 -224 0
v -80 -256 0
v -96 -256 0
v -96 -240 0
v -80 -240 0
v -288 -256 0
v -304 -256 0
v -304 -240 0
v -288 -240 0
v -992 -256 0
v -1008 -256 0
v -1008 -240 0
v -992 -240 0
v -80 -272 0
v -96 -272 0
v -96 -256 0
v -80 -256 0
v -672 -272 0
v -688 -272 0
v -688 -256 0
v -672 -256 0
v -992 -272 0
v -1008 -272 0
v -1008 -256 0
v -992 -256 0
v -496 -288 0
v -512 -288 0
v -512 -272 0
v -496 -272 0
v -992 -288 0
v -1008 -288 0
v -1008 -272 0
v -992 -272 0
v -592 -320 0
v -608 -320 0
v -608 -304 0
v -592 -304 0
v -448 -336 0
v -464 -336 0
v -464 -320 0
v -448 -320 0
v -640 -336 0
v -656 -336 0
v -656 -320 0
v -640 -320 0
v -656 -336 0
v -672 -336 0
v -672 -320 0
v -656 -320 0
v -672 -336 0
v -688 -336 0
v -688 -320 0
v -672 -320 0
v -688 -336 0
v -704 -336 0
v -704 -320 0
v -688 -320 0
v -704 -336 0
v -720 -336 0
v -720 -320 0
v -704 -320 0
v -720 -336 0
v -736 -336 0
v -736 -320 0
v -720 -320 0
v -736 -336 0
v -752 -336 0
v -752 -320 0
v -736 -320 0
v -752 -336 0
v -768 -336 0
v -768 -320 0
v -752 -320 0
v -768 -336 0
v -784 -336 0
v -784 -320 0
v -768 -320 0
v -48 -352 0
v -64 -352 0
v -64 -336 0
v -48 -336 0
v -672 -352 0
v -688 -352 0
v -688 -336 0
v -672 -336 0
v -704 -352 0
v -720 -352 0
v -720 -336 0
v -704 -336 0
v -736 -352 0
v -752 -352 0
v -752 -336 0
v -736 -336 0
v -816 -352 0
v -832 -352 0
v -832 -336 0
v -816 -336 0
v -336 -368 0
v -352 -368 0
v -352 -352 0
v -336 -352 0
v -352 -368 0
v -368 -368 0
v -368 -352 0
v -352 -352 0
v -368 -368 0
v -384 -368 0
v -384 -352 0
v -368 -352 0
v -384 -368 0
v -400 -368 0
v -400 -352 0
v -384 -352 0
v -400 -368 0
v -416 -368 0
v -416 -352 0
v -400 -352 0
v -416 -368 0
v -432 -368 0
v -432 -352 0
v -416 -352 0
v -432 -368 0
v -448 -368 0
v -448 -352 0
v -432 -352 0
v -448 -368 0
v -464 -368 0
v -464 -352 0
v -448 -352 0
v -464 -368 0
v -480 -368 0
v -480 -352 0
v -464 -352 0
v -816 -368 0
v -832 -368 0
v -832 -352 0
v -816 -352 0
v -816 -384 0
v -832 -384 0
v -832 -368 0
v -816 -368 0
v -368 -400 0
v -384 -400 0
v -384 -384 0
v -368 -384 0
v -400 -400 0
v -416 -400 0
v -416 -384 0
v -400 -384 0
v -432 -400 0
v -448 -400 0
v -448 -384 0
v -432 -384 0
v -672 -416 0
v -688 -416 0
v -688 -400 0
v -672 -400 0
v -704 -416 0
v -720 -416 0
v -720 -400 0
v -704 -400 0
v -736 -416 0
v -752 -416 0
v -752 -400 0
v -736 -400 0
v -1104 -416 0
v -1120 -416 0
v -1120 -400 0
v -1104 -400 0
v -272 -432 0
v -288 -432 0
v -288 -416 0
v -272 -416 0
v -336 -432 0
v -352 -432 0
v -352 -416 0
v -336 -416 0
v -352 -432 0
v -368 -432 0
v -368 -416 0
v -352 -416 0
v -368 -432 0
v -384 -432 0
v -384 -416 0
v -368 -416 0
v -384 -432 0
v -400 -432 0
v -400 -416 0
v -384 -416 0
v -400 -432 0
v -416 -432 0
v -416 -416 0
v -400 -416 0
v -416 -432 0
v -432 -432 0
v -432 -416 0
v -416 -416 0
v -432 -432 0
v -448 -432 0
v -448 -416 0
v -432 -416 0
v -448 -432 0
v -464 -432 0
v -464 -416 0
v -448 -416 0
v -464 -432 0
v -480 -432 0
v -480 -416 0
v -464 -416 0
v -544 -432 0
v -560 -432 0
v -560 -416 0
v -544 -416 0
v -560 -432 0
v -576 -432 0
v -576 -416 0
v -560 -416 0
v -1040 -432 0
v -1056 -432 0
v -1056 -416 0
v -1040 -416 0
v -272 -448 0
v -288 -448 0
v -288 -432 0
v -272 -432 0
v -368 -448 0
v -384 -448 0
v -384 -432 0
v -368 -432 0
v -400 -448 0
v -416 -448 0
v -416 -432 0
v -400 -432 0
v -432 -448 0
v -448 -448 0
v -448 -432 0
v -432 -432 0
v -544 -448 0
v -560 -448 0
v -560 -432 0
v -544 -432 0
v -560 -448 0
v -576 -448 0
v -576 -432 0
v -560 -432 0
v -672 -448 0
v -688 -448 0
v -688 -432 0
v -672 -432 0
v -704 -448 0
v -720 -448 0
v -720 -432 0
v -704 -432 0
v -736 -448 0
v -752 -448 0
v -752 -432 0
v -736 -432 0
v -272 -464 0
v -288 -464 0
v -288 -448 0
v -272 -448 0
v -544 -464 0
v -560 -464 0
v -560 -448 0
v -544 -448 0
v -560 -464 0
v -576 -464 0
v -576 -448 0
v -560 -448 0
v -1024 -464 0
v -1040 -464 0
v -1040 -448 0
v -1024 -448 0
v -1040 -464 0
v -1056 -464 0
v -1056 -448 0
v -1040 -448 0
v -1056 -464 0
v -1072 -464 0
v -1072 -448 0
v -1056 -448 0
v -1072 -464 0
v -1088 -464 0
v -1088 -448 0
v -1072 -448 0
v -1088 -464 0
v -1104 -464 0
v -1104 -448 0
v -1088 -448 0
v -1104 -464 0
v -1120 -464 0
v -1120 -448 0
v -1104 -448 0
v -272 -480 0
v -288 -480 0
v -288 -464 0
v -272 -464 0
v -1040 -480 0
v -1056 -480 0
v -1056 -464 0
v -1040 -464 0
v -1088 -480 0
v -1104 -480 0
v -1104 -464 0
v -1088 -464 0
v -1024 -496 0
v -1040 -496 0
v -1040 -480 0
v -1024 -480 0
v -1040 -496 0
v -1056 -496 0
v -1056 -480 0
v -1040 -480 0
v -1056 -496 0
v -1072 -496 0
v -1072 -480 0
v -1056 -480 0
v -1072 -496 0
v -1088 -496 0
v -1088 -480 0
v -1072 -480 0
v -1088 -496 0
v -1104 -496 0
v -1104 -480 0
v -1088 -480 0
v -1104 -496 0
v -1120 -496 0
v -1120 -480 0
v -1104 -480 0
v -1056 -512 0
v -1072 -512 0
v -1072 -496 0
v -1056 -496 0
v -1072 -512 0
v -1088 -512 0
v -1088 -496 0
v -1072 -496 0
v -656 -624 0
v -672 -624 0
v -672 -608 0
v -656 -608 0
v -128 -640 0
v -144 -640 0
v -144 -624 0
v -128 -624 0
v -656 -640 0
v -672 -640 0
v -672 -624 0
v -656 -624 0
v -368 -656 0
v -384 -656 0
v -384 -640 0
v -368 -640 0
v -624 -656 0
v -640 -656 0
v -640 -640 0
v -624 -640 0
v -656 -656 0
v -672 -656 0
v -672 -640 0
v -656 -640 0
v -224 -672 0
v -240 -672 0
v -240 -656 0
v -224 -656 0
v 0 -688 0
v -16 -688 0
v -16 -672 0
v 0 -672 0
v -432 -688 0
v -448 -688 0
v -448 -672 0
v -432 -672 0
v -912 -688 0
v -928 -688 0
v -928 -672 0
v -912 -672 0
v -1024 -688 0
v -1040 -688 0
v -1040 -672 0
v -1024 -672 0
v -272 -704 0
v -288 -704 0
v -288 -688 0
v -272 -688 0
v -64 -720 0
v -80 -720 0
v -80 -704 0
v -64 -704 0
v -96 -720 0
v -112 -720 0
v -112 -704 0
v -96 -704 0
v -128 -720 0
v -144 -720 0
v -144 -704 0
v -128 -704 0
v -1056 -720 0
v -1072 -720 0
v -1072 -704 0
v -1056 -704 0
v -976 -736 0
v -992 -736 0
v -992 -720 0
v -976 -720 0
v -176 -752 0
v -192 -752 0
v -192 -736 0
v -176 -736 0
v -192 -752 0
v -208 -752 0
v -208 -736 0
v -192 -736 0
v -208 -752 0
v -224 -752 0
v -224 -736 0
v -208 -736 0
v -224 -752 0
v -240 -752 0
v -240 -736 0
v -224 -736 0
v -240 -752 0
v -256 -752 0
v -256 -736 0
v -240 -736 0
v -256 -752 0
v -272 -752 0
v -272 -736 0
v -256 -736 0
v -272 -752 0
v -288 -752 0
v -288 -736 0
v -272 -736 0
v -288 -752 0
v -304 -752 0
v -304 -736 0
v -288 -736 0
v -304 -752 0
v -320 -752 0
v -320 -736 0
v -304 -736 0
v -320 -752 0
v -336 -752 0
v -336 -736 0
v -320 -736 0
v -368 -752 0
v -384 -752 0
v -384 -736 0
v -368 -736 0
v -400 -752 0
v -416 -752 0
v -416 -736 0
v -400 -736 0
v -432 -752 0
v -448 -752 0
v -448 -736 0
v -432 -736 0
v -192 -768 0
v -208 -768 0
v -208 -752 0
v -192 -752 0
v -288 -768 0
v -304 -768 0
v -304 -752 0
v -288 -752 0
v -64 -784 0
v -80 -784 0
v -80 -768 0
v -64 -768 0
v -96 -784 0
v -112 -784 0
v -112 -768 0
v -96 -768 0
v -128 -784 0
v -144 -784 0
v -144 -768 0
v -128 -768 0
v -224 -784 0
v -240 -784 0
v -240 -768 0
v -224 -768 0
v -256 -784 0
v -272 -784 0
v -272 -768 0
v -256 -768 0
v -368 -784 0
v -384 -784 0
v -384 -768 0
v -368 -768 0
v -400 -784 0
v -416 -784 0
v -416 -768 0
v -400 -768 0
v -432 -784 0
v -448 -784 0
v -448 -768 0
v -432 -768 0
v -912 -784 0
v -928 -784 0
v -928 -768 0
v -912 -768 0
v -960 -784 0
v -976 -784 0
v -976 -768 0
v -960 -768 0
v -1008 -784 0
v -1024 -784 0
v -1024 -768 0
v -1008 -768 0
v -1056 -784 0
v -1072 -784 0
v -1072 -768 0
v -1056 -768 0
v -1104 -784 0
v -1120 -784 0
v -1120 -768 0
v -1104 -768 0
v -192 -800 0
v -208 -800 0
v -208 -784 0
v -192 -784 0
v -288 -800 0
v -304 -800 0
v -304 -784 0
v -288 -784 0

# Texture cooridinates (Count = 184)
vt 0.7038217 0.4652631
vt 0.7292994 0.4652631
vt 0.7292994 0.4989474
vt 0.7038217 0.4989474
vt 0.8121019 0.4652631
vt 0.8375796 0.4652631
vt 0.8375796 0.4989474
vt 0.8121019 0.4989474
vt 0.7308917 0.2863158
vt 0.7563694 0.2863158
vt 0.7563694 0.32
vt 0.7308917 0.32
vt 0.7308917 0.3221053
vt 0.7563694 0.3221053
vt 0.7563694 0.3557895
vt 0.7308917 0.3557895
vt 0.5955414 0
vt 0.6210191 0
vt 0.6210191 0.03368419
vt 0.5955414 0.03368419
vt 0.9474522 0.7157894
vt 0.97293 0.7157894
vt 0.97293 0.7494737
vt 0.9474522 0.7494737
vt 0.9745223 0.7157894
vt 1 0.7157894
vt 1 0.7494737
vt 0.9745223 0.7494737
vt 0.6226115 0.1431579
vt 0.6480892 0.1431579
vt 0.6480892 0.1768421
vt 0.6226115 0.1768421
vt 0.6496815 0.1431579
vt 0.6751592 0.1431579
vt 0.6751592 0.1768421
vt 0.6496815 0.1768421
vt 0.1082803 0.3578947
vt 0.133758 0.3578947
vt 0.133758 0.391579
vt 0.1082803 0.391579
vt 0.1353503 0.3936842
vt 0.160828 0.3936842
vt 0.160828 0.4273684
vt 0.1353503 0.4273684
vt 0.1353503 0.3578947
vt 0.160828 0.3578947
vt 0.160828 0.391579
vt 0.1353503 0.391579
vt 0.1353503 0.3221053
vt 0.160828 0.3221053
vt 0.160828 0.3557895
vt 0.1353503 0.3557895
vt 0.05414013 0.3936842
vt 0.07961784 0.3936842
vt 0.07961784 0.4273684
vt 0.05414013 0.4273684
vt 0.05414013 0.3578947
vt 0.07961784 0.3578947
vt 0.07961784 0.391579
vt 0.05414013 0.391579
vt 0.05414013 0.3221053
vt 0.07961784 0.3221053
vt 0.07961784 0.3557895
vt 0.05414013 0.3557895
vt 0.6496815 0.3936842
vt 0.6751592 0.3936842
vt 0.6751592 0.4273684
vt 0.6496815 0.4273684
vt 0.7579618 0.4652631
vt 0.7834395 0.4652631
vt 0.7834395 0.4989474
vt 0.7579618 0.4989474
vt 0.02707006 0.6442105
vt 0.05254777 0.6442105
vt 0.05254777 0.6778947
vt 0.02707006 0.6778947
vt 0.05414013 0.6442105
vt 0.07961784 0.6442105
vt 0.07961784 0.6778947
vt 0.05414013 0.6778947
vt 0.08121019 0.6442105
vt 0.1066879 0.6442105
vt 0.1066879 0.6778947
vt 0.08121019 0.6778947
vt 0.7308917 0.3936842
vt 0.7563694 0.3936842
vt 0.7563694 0.4273684
vt 0.7308917 0.4273684
vt 0.02707006 0.3936842
vt 0.05254777 0.3936842
vt 0.05254777 0.4273684
vt 0.02707006 0.4273684
vt 0.02707006 0.3578947
vt 0.05254777 0.3578947
vt 0.05254777 0.391579
vt 0.02707006 0.391579
vt 0.02707006 0.3221053
vt 0.05254777 0.3221053
vt 0.05254777 0.3557895
vt 0.02707006 0.3557895
vt 0.6226115 0.6084211
vt 0.6480892 0.6084211
vt 0.6480892 0.6421052
vt 0.6226115 0.6421052
vt 0.6496815 0.6084211
vt 0.6751592 0.6084211
vt 0.6751592 0.6421052
vt 0.6496815 0.6421052
vt 0.6767516 0.6084211
vt 0.7022293 0.6084211
vt 0.7022293 0.6421052
vt 0.6767516 0.6421052
vt 0.9474522 0.68
vt 0.97293 0.68
vt 0.97293 0.7136842
vt 0.9474522 0.7136842
vt 0.9745223 0.68
vt 1 0.68
vt 1 0.7136842
vt 0.9745223 0.7136842
vt 0.5684713 0.03578949
vt 0.593949 0.03578949
vt 0.593949 0.06947368
vt 0.5684713 0.06947368
vt 0.5955414 0.03578949
vt 0.6210191 0.03578949
vt 0.6210191 0.06947368
vt 0.5955414 0.06947368
vt 0.6767516 0.1073684
vt 0.7022293 0.1073684
vt 0.7022293 0.1410526
vt 0.6767516 0.1410526
vt 0.7038217 0.1073684
vt 0.7292994 0.1073684
vt 0.7292994 0.1410526
vt 0.7038217 0.1410526
vt 0.5414013 0
vt 0.566879 0
vt 0.566879 0.03368419
vt 0.5414013 0.03368419
vt 0.6767516 0.07157892
vt 0.7022293 0.07157892
vt 0.7022293 0.1052632
vt 0.6767516 0.1052632
vt 0.7038217 0.07157892
vt 0.7292994 0.07157892
vt 0.7292994 0.1052632
vt 0.7038217 0.1052632
vt 0.406051 0.4652631
vt 0.4315287 0.4652631
vt 0.4315287 0.4989474
vt 0.406051 0.4989474
vt 0.7308917 0.5726316
vt 0.7563694 0.5726316
vt 0.7563694 0.6063158
vt 0.7308917 0.6063158
vt 0.7850319 0.5726316
vt 0.8105096 0.5726316
vt 0.8105096 0.6063158
vt 0.7850319 0.6063158
vt 0.8121019 0.5726316
vt 0.8375796 0.5726316
vt 0.8375796 0.6063158
vt 0.8121019 0.6063158
vt 0.6767516 0.4652631
vt 0.7022293 0.4652631
vt 0.7022293 0.4989474
vt 0.6767516 0.4989474
vt 0.7308917 0.6084211
vt 0.7563694 0.6084211
vt 0.7563694 0.6421052
vt 0.7308917 0.6421052
vt 0.7579618 0.6084211
vt 0.7834395 0.6084211
vt 0.7834395 0.6421052
vt 0.7579618 0.6421052
vt 0.7850319 0.6084211
vt 0.8105096 0.6084211
vt 0.8105096 0.6421052
vt 0.7850319 0.6421052
vt 0.7308917 0.2505263
vt 0.7563694 0.2505263
vt 0.7563694 0.2842105
vt 0.7308917 0.2842105

# Normal
vn 0 0 -1

# Mesh description
g Lvl1_mesh_0003

# Faces
f 1/1/1 2/2/1 3/3/1 4/4/1
f 5/1/1 6/2/1 7/3/1 8/4/1
f 9/5/1 10/6/1 11/7/1 12/8/1
f 13/5/1 14/6/1 15/7/1 16/8/1
f 17/9/1 18/10/1 19/11/1 20/12/1
f 21/9/1 22/10/1 23/11/1 24/12/1
f 25/9/1 26/10/1 27/11/1 28/12/1
f 29/9/1 30/10/1 31/11/1 32/12/1
f 33/9/1 34/10/1 35/11/1 36/12/1
f 37/9/1 38/10/1 39/11/1 40/12/1
f 41/13/1 42/14/1 43/15/1 44/16/1
f 45/9/1 46/10/1 47/11/1 48/12/1
f 49/9/1 50/10/1 51/11/1 52/12/1
f 53/13/1 54/14/1 55/15/1 56/16/1
f 57/17/1 58/18/1 59/19/1 60/20/1
f 61/13/1 62/14/1 63/15/1 64/16/1
f 65/21/1 66/22/1 67/23/1 68/24/1
f 69/25/1 70/26/1 71/27/1 72/28/1
f 73/13/1 74/14/1 75/15/1 76/16/1
f 77/29/1 78/30/1 79/31/1 80/32/1
f 81/33/1 82/34/1 83/35/1 84/36/1
f 85/37/1 86/38/1 87/39/1 88/40/1
f 89/41/1 90/42/1 91/43/1 92/44/1
f 93/45/1 94/46/1 95/47/1 96/48/1
f 97/45/1 98/46/1 99/47/1 100/48/1
f 101/49/1 102/50/1 103/51/1 104/52/1
f 105/53/1 106/54/1 107/55/1 108/56/1
f 109/49/1 110/50/1 111/51/1 112/52/1
f 113/5/1 114/6/1 115/7/1 116/8/1
f 117/57/1 118/58/1 119/59/1 120/60/1
f 121/1/1 122/2/1 123/3/1 124/4/1
f 125/61/1 126/62/1 127/63/1 128/64/1
f 129/65/1 130/66/1 131/67/1 132/68/1
f 133/69/1 134/70/1 135/71/1 136/72/1
f 137/73/1 138/74/1 139/75/1 140/76/1
f 141/77/1 142/78/1 143/79/1 144/80/1
f 145/77/1 146/78/1 147/79/1 148/80/1
f 149/77/1 150/78/1 151/79/1 152/80/1
f 153/77/1 154/78/1 155/79/1 156/80/1
f 157/77/1 158/78/1 159/79/1 160/80/1
f 161/77/1 162/78/1 163/79/1 164/80/1
f 165/77/1 166/78/1 167/79/1 168/80/1
f 169/81/1 170/82/1 171/83/1 172/84/1
f 173/65/1 174/66/1 175/67/1 176/68/1
f 177/85/1 178/86/1 179/87/1 180/88/1
f 181/85/1 182/86/1 183/87/1 184/88/1
f 185/85/1 186/86/1 187/87/1 188/88/1
f 189/89/1 190/90/1 191/91/1 192/92/1
f 193/73/1 194/74/1 195/75/1 196/76/1
f 197/77/1 198/78/1 199/79/1 200/80/1
f 201/77/1 202/78/1 203/79/1 204/80/1
f 205/77/1 206/78/1 207/79/1 208/80/1
f 209/77/1 210/78/1 211/79/1 212/80/1
f 213/77/1 214/78/1 215/79/1 216/80/1
f 217/77/1 218/78/1 219/79/1 220/80/1
f 221/77/1 222/78/1 223/79/1 224/80/1
f 225/81/1 226/82/1 227/83/1 228/84/1
f 229/93/1 230/94/1 231/95/1 232/96/1
f 233/97/1 234/98/1 235/99/1 236/100/1
f 237/85/1 238/86/1 239/87/1 240/88/1
f 241/85/1 242/86/1 243/87/1 244/88/1
f 245/85/1 246/86/1 247/87/1 248/88/1
f 249/85/1 250/86/1 251/87/1 252/88/1
f 253/85/1 254/86/1 255/87/1 256/88/1
f 257/85/1 258/86/1 259/87/1 260/88/1
f 261/1/1 262/2/1 263/3/1 264/4/1
f 265/37/1 266/38/1 267/39/1 268/40/1
f 269/101/1 270/102/1 271/103/1 272/104/1
f 273/105/1 274/106/1 275/107/1 276/108/1
f 277/109/1 278/110/1 279/111/1 280/112/1
f 281/101/1 282/102/1 283/103/1 284/104/1
f 285/105/1 286/106/1 287/107/1 288/108/1
f 289/109/1 290/110/1 291/111/1 292/112/1
f 293/101/1 294/102/1 295/103/1 296/104/1
f 297/105/1 298/106/1 299/107/1 300/108/1
f 301/109/1 302/110/1 303/111/1 304/112/1
f 305/113/1 306/114/1 307/115/1 308/116/1
f 309/117/1 310/118/1 311/119/1 312/120/1
f 313/1/1 314/2/1 315/3/1 316/4/1
f 317/45/1 318/46/1 319/47/1 320/48/1
f 321/121/1 322/122/1 323/123/1 324/124/1
f 325/125/1 326/126/1 327/127/1 328/128/1
f 329/121/1 330/122/1 331/123/1 332/124/1
f 333/129/1 334/130/1 335/131/1 336/132/1
f 337/133/1 338/134/1 339/135/1 340/136/1
f 341/137/1 342/138/1 343/139/1 344/140/1
f 345/137/1 346/138/1 347/139/1 348/140/1
f 349/137/1 350/138/1 351/139/1 352/140/1
f 353/49/1 354/50/1 355/51/1 356/52/1
f 357/141/1 358/142/1 359/143/1 360/144/1
f 361/145/1 362/146/1 363/147/1 364/148/1
f 365/73/1 366/74/1 367/75/1 368/76/1
f 369/77/1 370/78/1 371/79/1 372/80/1
f 373/77/1 374/78/1 375/79/1 376/80/1
f 377/77/1 378/78/1 379/79/1 380/80/1
f 381/77/1 382/78/1 383/79/1 384/80/1
f 385/77/1 386/78/1 387/79/1 388/80/1
f 389/149/1 390/150/1 391/151/1 392/152/1
f 393/9/1 394/10/1 395/11/1 396/12/1
f 397/9/1 398/10/1 399/11/1 400/12/1
f 401/153/1 402/154/1 403/155/1 404/156/1
f 405/157/1 406/158/1 407/159/1 408/160/1
f 409/157/1 410/158/1 411/159/1 412/160/1
f 413/157/1 414/158/1 415/159/1 416/160/1
f 417/157/1 418/158/1 419/159/1 420/160/1
f 421/161/1 422/162/1 423/163/1 424/164/1
f 425/29/1 426/30/1 427/31/1 428/32/1
f 429/33/1 430/34/1 431/35/1 432/36/1
f 433/37/1 434/38/1 435/39/1 436/40/1
f 437/69/1 438/70/1 439/71/1 440/72/1
f 441/45/1 442/46/1 443/47/1 444/48/1
f 445/65/1 446/66/1 447/67/1 448/68/1
f 449/149/1 450/150/1 451/151/1 452/152/1
f 453/49/1 454/50/1 455/51/1 456/52/1
f 457/1/1 458/2/1 459/3/1 460/4/1
f 461/69/1 462/70/1 463/71/1 464/72/1
f 465/1/1 466/2/1 467/3/1 468/4/1
f 469/65/1 470/66/1 471/67/1 472/68/1
f 473/69/1 474/70/1 475/71/1 476/72/1
f 477/65/1 478/66/1 479/67/1 480/68/1
f 481/85/1 482/86/1 483/87/1 484/88/1
f 485/85/1 486/86/1 487/87/1 488/88/1
f 489/85/1 490/86/1 491/87/1 492/88/1
f 493/165/1 494/166/1 495/167/1 496/168/1
f 497/165/1 498/166/1 499/167/1 500/168/1
f 501/169/1 502/170/1 503/171/1 504/172/1
f 505/173/1 506/174/1 507/175/1 508/176/1
f 509/173/1 510/174/1 511/175/1 512/176/1
f 513/173/1 514/174/1 515/175/1 516/176/1
f 517/173/1 518/174/1 519/175/1 520/176/1
f 521/173/1 522/174/1 523/175/1 524/176/1
f 525/173/1 526/174/1 527/175/1 528/176/1
f 529/173/1 530/174/1 531/175/1 532/176/1
f 533/173/1 534/174/1 535/175/1 536/176/1
f 537/177/1 538/178/1 539/179/1 540/180/1
f 541/181/1 542/182/1 543/183/1 544/184/1
f 545/181/1 546/182/1 547/183/1 548/184/1
f 549/181/1 550/182/1 551/183/1 552/184/1
f 553/85/1 554/86/1 555/87/1 556/88/1
f 557/85/1 558/86/1 559/87/1 560/88/1
f 561/85/1 562/86/1 563/87/1 564/88/1
f 565/85/1 566/86/1 567/87/1 568/88/1
f 569/85/1 570/86/1 571/87/1 572/88/1
f 573/85/1 574/86/1 575/87/1 576/88/1
f 577/85/1 578/86/1 579/87/1 580/88/1
f 581/181/1 582/182/1 583/183/1 584/184/1
f 585/181/1 586/182/1 587/183/1 588/184/1
f 589/181/1 590/182/1 591/183/1 592/184/1
f 593/9/1 594/10/1 595/11/1 596/12/1
f 597/9/1 598/10/1 599/11/1 600/12/1
f 601/9/1 602/10/1 603/11/1 604/12/1
f 605/9/1 606/10/1 607/11/1 608/12/1
f 609/9/1 610/10/1 611/11/1 612/12/1
f 613/85/1 614/86/1 615/87/1 616/88/1
f 617/85/1 618/86/1 619/87/1 620/88/1

